<?xml version="1.0" encoding="utf-8"?>
<!-- Generator: Adobe Illustrator 21.0.2, SVG Export Plug-In . SVG Version: 6.00 Build 0)  -->
<svg version="1.1" id="Camada_1" xmlns="http://www.w3.org/2000/svg" xmlns:xlink="http://www.w3.org/1999/xlink" x="0px" y="0px"
	 viewBox="0 0 558.2 558.2" style="enable-background:new 0 0 558.2 558.2;" xml:space="preserve">
<style type="text/css">
	.st0{fill:#15A04B;}
	.st1{fill:none;stroke:#FFFFFF;stroke-width:12;}
	.st2{fill:none;stroke:#FFFFFF;stroke-width:17;}
	.st3{fill:none;stroke:#FFFFFF;stroke-width:10;stroke-miterlimit:10;}
	.st4{fill:#FEFEFE;}
</style>
<g>
	<path class="st0" d="M534.3,311.8L311.8,534.3c-18.1,18.1-47.3,18.1-65.4,0L23.8,311.8c-18.1-18.1-18.1-47.3,0-65.4L246.4,23.8
		c18.1-18.1,47.3-18.1,65.4,0l222.6,222.6C552.4,264.4,552.4,293.7,534.3,311.8z"/>
	<g id="branchs">
		<g>
			<path class="st1" d="M271.8,279.8c-10.4-9.9-24.7-13.6-37.3-15.3c-17.5-2.6-32.9-9.5-32.9-29.1V227v-20.7"/>
			<path class="st1" d="M290.6,290.5c10.5-10,25-13.8,37.6-15.4c17.7-2.7,33.2-9.6,33.2-29.4v-8.5v-27.4"/>
		</g>
		<g>
			<path class="st2" d="M129.5,233.5v17c0,39.8,31.2,53.7,66.7,59c25.4,3.3,54.5,10.9,75.6,31"/>
			<path class="st2" d="M430.1,232.1v57c0,39.9-31.2,53.7-66.7,59.1c-25.4,3.3-54.5,10.9-75.6,31"/>
		</g>
	</g>
	<g id="balls">
		<path class="st3" d="M201.6,166.5c12.2,0,22,9.9,22,22c0,12.2-9.9,22-22,22c-12.2,0-22-9.9-22-22
			C179.6,176.3,189.4,166.5,201.6,166.5z"/>
		<path class="st3" d="M129.5,191.3c12.2,0,22,9.9,22,22c0,12.2-9.9,22-22,22s-22-9.9-22-22C107.5,201.2,117.3,191.3,129.5,191.3z"
			/>
		<path class="st3" d="M279.1,133.7c15.5,0,28.1,12.6,28.1,28.1S294.6,190,279.1,190c-15.5,0-28.1-12.6-28.1-28.1
			S263.5,133.7,279.1,133.7z"/>
		<path class="st3" d="M429.8,191.3c-12.2,0-22,9.9-22,22c0,12.2,9.9,22,22,22s22-9.9,22-22C451.9,201.2,442,191.3,429.8,191.3z"/>
		<path class="st3" d="M361,168.1c-12.2,0-22,9.9-22,22.1c0,12.1,9.9,22,22,22c12.2,0,22-9.9,22-22C383,178,373.2,168.1,361,168.1z"
			/>
	</g>
	<g>
		<path id="ball-pull" class="st4" d="M361,364.8c-10.9,0-19.7,8.8-19.7,19.7c0,10.9,8.8,19.7,19.7,19.7c10.9,0,19.7-8.8,19.7-19.7
			C380.7,373.6,371.9,364.8,361,364.8z"/>
		<path id="branch-pull" class="st1" d="M290.2,452.5c10.5-10,25-13.8,37.6-15.4c17.7-2.7,33.2-9.6,33.2-29.4v-8.5v-27.4v-16.9
			c0-19.9-15.5-26.8-33.2-29.4c-12.6-1.6-27.1-5.4-37.6-15.4"/>
	</g>
	<path id="body" class="st4" d="M262.3,544.7c10.8,4.2,22.8,4.2,33.6,0V186.8h-33.6V544.7z"/>
</g>
</svg>
