<svg version="1.1" id="Layer_1" xmlns="http://www.w3.org/2000/svg" xmlns:xlink="http://www.w3.org/1999/xlink" x="0px" y="0px" viewBox="0 0 300 300" style="enable-background:new 0 0 300 300;" xml:space="preserve">
  <style type="text/css">
    .st0{fill:#494948;}
    .st1{fill:#666665;}
    .st2{fill:#FBFAF9;}
    .st3{fill:#1DCA7F;}
    .st4{fill:#6898AE;}
    .st5{fill:#344C57;}

    @keyframes cursor {
      0%, 100% {
        transform: translateX(-20px);
      }
      50% {
        transform: rotate(-15deg) translateX(0);
      }
      55% {
        transform: rotate(-15deg) scale(0.9) translateX(0);
      }
      60% {
        transform: rotate(-15deg) translateX(0);
      }
    }
    .cursor {
      animation: cursor 6000ms ease-in-out infinite;
      transform-origin: 160px 242px;
    }

    @keyframes dots {
      from {
        transform: translateX(-18px);
      }
    }
    .dots {
      animation: dots 5000ms ease-in-out alternate infinite;
    }

    @keyframes face {
      to {
        transform: translateY(-5px);
      }
    }
    .face {
      animation: face 6000ms ease-in-out alternate infinite;
    }
    @keyframes face-mouth {
      0%, 50% {
        transform: none;
      }
      100% {
        transform: scale(1, 1.33);
      }
    }
    .face-mouth {
      animation: face-mouth 4000ms ease-in-out alternate infinite;
      transform-origin: 154px 53px;
    }
    @keyframes face-eyes {
      0%, 10%, 15%, 40%, 45%, 50%, 100% {
        transform: scale(1, 1);
      }
      13%, 43%, 47% {
        transform: scale(1, 0.2);
      }
    }
    .face-eyes {
      animation: face-eyes 5000ms ease-in-out infinite;
      transform-origin: 157px 47px;
    }

    @keyframes hand {
      50% {
        transform: rotate(25deg);
      }
    }
    .hand {
      animation: hand 4000ms ease-in-out alternate infinite;
      transform-origin: 220px 120px;
    }

    @keyframes key {
      0%, 8%, 100% {
        fill: #666665;
      }
      1%, 7% {
        fill: #FFFFFF;
        transform: translateY(0);
      }
      4% {
        transform: translateY(1px);
      }
    }
    .key1 {
      animation: key 4000ms linear 0ms infinite both;
    }
    .key2 {
      animation: key 4000ms linear 500ms infinite both;
    }
    .key3 {
      animation: key 4000ms linear 1000ms infinite both;
    }
    .key4 {
      animation: key 4000ms linear 1500ms infinite both;
    }
    .key5 {
      animation: key 4000ms linear 2000ms infinite both;
    }
    .key6 {
      animation: key 4000ms linear 2500ms infinite both;
    }

    @keyframes letter {
      0%, 51%, 100% {
        opacity: 0;
      }
      1%, 50% {
        opacity: 1;
      }
    }
    .letter1 {
      animation: letter 5000ms linear 0ms infinite both;
    }
    .letter2 {
      animation: letter 5000ms linear 300ms infinite both;
    }
    .letter3 {
      animation: letter 5000ms linear 600ms infinite both;
    }
    .letter4 {
      animation: letter 5000ms linear 900ms infinite both;
    }
    .letter5 {
      animation: letter 5000ms linear 1200ms infinite both;
    }
    .letter6 {
      animation: letter 5000ms linear 1500ms infinite both;
    }

    @keyframes spacebar {
      51%, 59% {
        transform: translateY(0);
      }
      55% {
        transform: translateY(1px);
      }
    }
    .spacebar {
      animation: spacebar 6000ms ease-in-out infinite;
    }
  </style>

  <!-- dots -->

  <g class="dots">
    <ellipse class="st2" cx="186.5" cy="204.9" rx="1.6" ry="1.5"/>
    <ellipse class="st2" cx="186.5" cy="214.2" rx="1.6" ry="1.5"/>
    <ellipse class="st2" cx="186.5" cy="223.5" rx="1.6" ry="1.5"/>
    <ellipse class="st2" cx="206.2" cy="204.9" rx="1.6" ry="1.5"/>
    <ellipse class="st2" cx="206.2" cy="214.2" rx="1.6" ry="1.5"/>
    <ellipse class="st2" cx="206.2" cy="223.5" rx="1.6" ry="1.5"/>
    <ellipse class="st2" cx="196.4" cy="204.9" rx="1.6" ry="1.5"/>
    <ellipse class="st2" cx="196.4" cy="214.2" rx="1.6" ry="1.5"/>
    <ellipse class="st2" cx="196.4" cy="223.5" rx="1.6" ry="1.5"/>
    <ellipse class="st2" cx="225.9" cy="204.9" rx="1.6" ry="1.5"/>
    <ellipse class="st2" cx="225.9" cy="214.2" rx="1.6" ry="1.5"/>
    <ellipse class="st2" cx="225.9" cy="223.5" rx="1.6" ry="1.5"/>
    <ellipse class="st2" cx="216.1" cy="204.9" rx="1.6" ry="1.5"/>
    <ellipse class="st2" cx="216.1" cy="214.2" rx="1.6" ry="1.5"/>
    <ellipse class="st2" cx="216.1" cy="223.5" rx="1.6" ry="1.5"/>
    <ellipse class="st2" cx="245.6" cy="204.9" rx="1.6" ry="1.5"/>
    <ellipse class="st2" cx="245.6" cy="214.2" rx="1.6" ry="1.5"/>
    <ellipse class="st2" cx="245.6" cy="223.5" rx="1.6" ry="1.5"/>
    <ellipse class="st2" cx="235.8" cy="204.9" rx="1.6" ry="1.5"/>
    <ellipse class="st2" cx="235.8" cy="214.2" rx="1.6" ry="1.5"/>
    <ellipse class="st2" cx="235.8" cy="223.5" rx="1.6" ry="1.5"/>
    <ellipse class="st2" cx="255.5" cy="204.9" rx="1.6" ry="1.5"/>
    <ellipse class="st2" cx="255.5" cy="214.2" rx="1.6" ry="1.5"/>
    <ellipse class="st2" cx="255.5" cy="223.5" rx="1.6" ry="1.5"/>
  </g>

  <!-- bg -->

  <g>
    <path class="st0" d="M211.1,242.5H87.2c-2.4,0-4.3-1.9-4.3-4.3v-67.9c0-2.4,1.9-4.3,4.3-4.3h123.9c2.4,0,4.3,1.9,4.3,4.3v67.9C215.5,240.5,213.5,242.5,211.1,242.5z"/>
    <path class="st0" d="M211.1,166.1H87.2c-2.4,0-4.3-1.9-4.3-4.3V80.9c0-2.4,1.9-4.3,4.3-4.3h123.9c2.4,0,4.3,1.9,4.3,4.3v80.9C215.5,164.2,213.5,166.1,211.1,166.1z"/>
  </g>

  <!-- keys -->
  
  <g>
    <rect x="95.9" y="178.9" class="st1 key1" width="13.3" height="13.3"/>
    <rect x="114.5" y="178.9" class="st1" width="13.3" height="13.3"/>
    <path class="st2" d="M145.4,180v11.2h-11.2V180H145.4 M146.5,178.9h-13.3v13.3h13.3V178.9L146.5,178.9z"/>
    <rect x="95.9" y="197.5" class="st1" width="13.3" height="13.3"/>
    <rect x="114.5" y="197.5" class="st1 key3" width="13.3" height="13.3"/>
    <rect x="133.2" y="197.5" class="st1" width="13.3" height="13.3"/>
    <rect x="95.9" y="216.1" class="st1" width="13.3" height="13.3"/>
    <rect x="151.8" y="178.9" class="st1" width="13.3" height="13.3"/>
    <rect x="170.5" y="178.9" class="st1 key6" width="13.3" height="13.3"/>
    <rect x="189.1" y="178.9" class="st1 key2" width="13.3" height="13.3"/>
    <rect x="151.8" y="197.5" class="st1 key5" width="13.3" height="13.3"/>
    <rect x="170.5" y="197.5" class="st1" width="13.3" height="13.3"/>
    <rect x="189.1" y="197.5" class="st1" width="13.3" height="13.3"/>
    <rect x="189.1" y="216.1" class="st1 key4" width="13.3" height="13.3"/>
    <rect x="114.5" y="216.1" class="st3 spacebar" width="69.3" height="13.3"/>
    <rect x="95.9" y="89.6" class="st1" width="106.6" height="67.7"/>
  </g>

  <!-- cursor -->

  <g class="cursor">
    <path class="st2" d="M175.7,238.8v16.9c0,3.8-3.1,6.8-6.8,6.8h-12.5c-1.8,0-3.6-0.7-4.9-2L140.2,249c-1.2-1.2-1.1-3.1,0.1-4.2h0.1c0.4-0.3,0.8-0.5,1.3-0.5c0.4,0,0.7,0.1,1,0.3c0.1,0,7.4,4.2,7.4,4.2V225c0-1.4,1.1-2.6,2.6-2.6s2.6,1.1,2.6,2.6v15.4h1.7v-6c0-1.4,1.1-2.6,2.6-2.6s2.6,1.1,2.6,2.6v6h1.7v-4.3c0-1.4,1.1-2.6,2.6-2.6s2.6,1.1,2.6,2.6v4.3h1.7v-1.5c0-1.4,1.1-2.6,2.6-2.6S175.7,237.4,175.7,238.8z"/>
  </g>

  <!-- hand -->

  <g>
    <circle class="st2" cx="218.4" cy="119.5" r="22.3"/>
    <path class="st3 hand" d="M229,115.5l-4.2,13.7c-0.6,2.1-2.9,3.3-5,2.6l-6.9-2.1c-1-0.3-1.9-1-2.4-2l-5.1-9.9l1.6-0.8c0.3-0.1,0.5-0.1,0.8,0c0.2,0.1,0.4,0.2,0.5,0.3l3.4,3.6l3.5-11.3c0.2-0.8,1.1-1.2,1.9-1c0.8,0.2,1.2,1.1,1,1.9l-2,6.6l0.9,0.3l2.8-9c0.2-0.8,1.1-1.2,1.9-1s1.2,1.1,1,1.9l-2.8,9l0.9,0.3l2.5-8.1c0.2-0.8,1.1-1.2,1.9-1s1.2,1.1,1,1.9l-2.5,8.1l0.9,0.3l1.6-5.2c0.2-0.8,1.1-1.2,1.9-1S229.3,114.8,229,115.5z"/>
  </g>

  <!-- face -->

  <g class="face">
    <path class="st4" d="M164.8,37.5h-31.4c-1,0-1.8,0.8-1.8,1.8v20.6c0,1,0.8,1.8,1.8,1.8h9.1l5.2,6.1c0.7,0.9,2.1,0.9,2.8,0l5.2-6.1h9.1c1,0,1.8-0.8,1.8-1.8V39.3C166.7,38.3,165.9,37.5,164.8,37.5z"/>
    <path class="st5 face-mouth" d="M154.2,51.7c0,0.7-0.1,1.3-0.4,1.9c-0.8,1.8-2.6,3.1-4.7,3.1c-2.1,0-3.9-1.3-4.7-3.1c-0.2-0.6-0.4-1.2-0.4-1.9H154.2z"/>
    <g class="face-eyes">
      <circle class="st5" cx="143.2" cy="46.5" r="1.8"/>
      <circle class="st5" cx="155.1" cy="46.5" r="1.8"/>
    </g>
  </g>

  <!-- word box -->

  <path class="st2" d="M109,146.6H16.9v-44.4H109V146.6z M18,145.5h89.9v-42.3H18V145.5z"/>
  <circle class="st2" cx="139.8" cy="185.6" r="1.7"/>
  <polygon class="st2" points="139.3,185.9 108,146.4 108.8,145.7 140.1,185.2"/>

  <!-- words -->

  <g>
    <path class="st2 letter1" d="M32.4,118.4h1.4v3.5c0.6-0.5,1.5-0.9,2.6-0.9c2.1,0,3,1.2,3.3,1.9v7.6h-1.4v-7.3c-0.3-0.4-0.9-1.1-2.2-1.1c-1.2,0-2,0.5-2.4,1v7.4h-1.4v-12.1H32.4z"/>
    <path class="st2 letter2" d="M43.1,128.5v-5.2c0.4-1,1.6-2.3,3.8-2.3s3.4,1.3,3.7,2.1v3.1h-6.2v2c0.3,0.8,1.2,1.5,2.5,1.5s2.1-0.7,2.5-1.5v-0.7h1.2v1.2c-0.4,0.8-1.5,2.1-3.7,2.1S43.5,129.5,43.1,128.5z M49.4,125.2v-1.6c-0.3-0.8-1.2-1.5-2.5-1.5s-2.1,0.7-2.5,1.5v1.6H49.4z"/>
    <path class="st2 letter3" d="M53.8,129.5H57v-10h-2.8v-1h4.2v11.1h3.1v1h-7.6v-1.1H53.8z"/>
    <path class="st2 letter4" d="M64.6,129.5h3.1v-10h-2.8v-1h4.2v11.1h3.1v1h-7.6C64.6,130.6,64.6,129.5,64.6,129.5z"/>
    <path class="st2 letter5" d="M75.3,128.5v-5.2c0.4-1,1.6-2.3,3.8-2.3c2.2,0,3.3,1.3,3.8,2.3v5.2c-0.4,1-1.6,2.3-3.8,2.3C76.8,130.8,75.7,129.5,75.3,128.5z M81.4,128.2v-4.6c-0.3-0.8-1.1-1.5-2.4-1.5s-2.1,0.7-2.4,1.5v4.6c0.3,0.8,1.1,1.5,2.4,1.5S81.1,129,81.4,128.2z"/>
    <path class="st2 letter6" d="M88.8,130.3v-1.2c0.1-0.2,0.4-0.4,0.9-0.4s0.9,0.2,0.9,0.4v1.2c-0.1,0.2-0.4,0.4-0.9,0.4C89.3,130.7,88.9,130.5,88.8,130.3z M89,120.2v-1.8h1.5v1.8l-0.2,6.9h-1.1L89,120.2z"/>
  </g>

  <rect x="144.8" y="119.1" class="st2" width="8.7" height="8.7"/>
</svg>
